<svg xmlns="http://www.w3.org/2000/svg" viewBox="0 0 128 128" role="img" aria-label="LightNovelWorld icon">
  <rect width="128" height="128" rx="24" fill="#0f172a" />
  <path d="M34 30h42c10.493 0 19 8.507 19 19v45c0 2.761-2.239 5-5 5H48c-7.732 0-14 6.268-14 14V35c0-2.761 2.239-5 5-5z" fill="#1d4ed8" />
  <path d="M48 30h42c2.761 0 5 2.239 5 5v61H53c-7.732 0-14 6.268-14 14V49c0-10.493 8.507-19 19-19z" fill="#60a5fa" />
  <path d="M54 48h26M54 61h30M54 74h24" stroke="#eff6ff" stroke-linecap="round" stroke-width="8" />
</svg>
